<mxfile host="app.diagrams.net" modified="2020-10-28T14:54:13.157Z" agent="5.0 (Windows NT 10.0; Win64; x64) AppleWebKit/537.36 (KHTML, like Gecko) Chrome/85.0.4183.102 YaBrowser/20.9.2.102 Yowser/2.5 Safari/537.36" etag="QdufkpcyN1i-69a_vJLi" version="13.8.5" type="github">
  <diagram name="Page-1" id="13e1069c-82ec-6db2-03f1-153e76fe0fe0">
    <mxGraphModel dx="1574" dy="848" grid="1" gridSize="10" guides="1" tooltips="1" connect="1" arrows="1" fold="1" page="1" pageScale="1" pageWidth="1100" pageHeight="850" background="#ffffff" math="0" shadow="0">
      <root>
        <mxCell id="0" />
        <mxCell id="1" parent="0" />
        <mxCell id="7baba1c4bc27f4b0-2" value="Игра" style="shape=umlLifeline;perimeter=lifelinePerimeter;whiteSpace=wrap;html=1;container=1;collapsible=0;recursiveResize=0;outlineConnect=0;rounded=1;shadow=0;comic=0;labelBackgroundColor=none;strokeWidth=1;fontFamily=Verdana;fontSize=12;align=center;" parent="1" vertex="1">
          <mxGeometry x="270" y="80" width="100" height="580" as="geometry" />
        </mxCell>
        <mxCell id="7baba1c4bc27f4b0-10" value="" style="html=1;points=[];perimeter=orthogonalPerimeter;rounded=0;shadow=0;comic=0;labelBackgroundColor=none;strokeWidth=1;fontFamily=Verdana;fontSize=12;align=center;" parent="7baba1c4bc27f4b0-2" vertex="1">
          <mxGeometry x="45" y="100" width="10" height="460" as="geometry" />
        </mxCell>
        <mxCell id="7baba1c4bc27f4b0-3" value="Поле" style="shape=umlLifeline;perimeter=lifelinePerimeter;whiteSpace=wrap;html=1;container=1;collapsible=0;recursiveResize=0;outlineConnect=0;rounded=1;shadow=0;comic=0;labelBackgroundColor=none;strokeWidth=1;fontFamily=Verdana;fontSize=12;align=center;" parent="1" vertex="1">
          <mxGeometry x="460" y="80" width="100" height="410" as="geometry" />
        </mxCell>
        <mxCell id="7baba1c4bc27f4b0-13" value="" style="html=1;points=[];perimeter=orthogonalPerimeter;rounded=0;shadow=0;comic=0;labelBackgroundColor=none;strokeWidth=1;fontFamily=Verdana;fontSize=12;align=center;" parent="7baba1c4bc27f4b0-3" vertex="1">
          <mxGeometry x="45" y="130" width="10" height="280" as="geometry" />
        </mxCell>
        <mxCell id="7baba1c4bc27f4b0-4" value="Ячейки" style="shape=umlLifeline;perimeter=lifelinePerimeter;whiteSpace=wrap;html=1;container=1;collapsible=0;recursiveResize=0;outlineConnect=0;rounded=1;shadow=0;comic=0;labelBackgroundColor=none;strokeWidth=1;fontFamily=Verdana;fontSize=12;align=center;" parent="1" vertex="1">
          <mxGeometry x="620" y="80" width="100" height="580" as="geometry" />
        </mxCell>
        <mxCell id="7baba1c4bc27f4b0-16" value="" style="html=1;points=[];perimeter=orthogonalPerimeter;rounded=0;shadow=0;comic=0;labelBackgroundColor=none;strokeWidth=1;fontFamily=Verdana;fontSize=12;align=center;" parent="7baba1c4bc27f4b0-4" vertex="1">
          <mxGeometry x="45" y="140" width="10" height="420" as="geometry" />
        </mxCell>
        <mxCell id="7baba1c4bc27f4b0-8" value="Игроки" style="shape=umlLifeline;perimeter=lifelinePerimeter;whiteSpace=wrap;html=1;container=1;collapsible=0;recursiveResize=0;outlineConnect=0;rounded=1;shadow=0;comic=0;labelBackgroundColor=none;strokeWidth=1;fontFamily=Verdana;fontSize=12;align=center;" parent="1" vertex="1">
          <mxGeometry x="30" y="80" width="100" height="580" as="geometry" />
        </mxCell>
        <mxCell id="7baba1c4bc27f4b0-9" value="" style="html=1;points=[];perimeter=orthogonalPerimeter;rounded=0;shadow=0;comic=0;labelBackgroundColor=none;strokeWidth=1;fontFamily=Verdana;fontSize=12;align=center;" parent="7baba1c4bc27f4b0-8" vertex="1">
          <mxGeometry x="45" y="100" width="10" height="460" as="geometry" />
        </mxCell>
        <mxCell id="tXwwSBrLttJE0uFEvsUb-11" value="" style="edgeStyle=elbowEdgeStyle;elbow=vertical;endArrow=classic;html=1;" edge="1" parent="7baba1c4bc27f4b0-8">
          <mxGeometry width="50" height="50" relative="1" as="geometry">
            <mxPoint x="50" y="460" as="sourcePoint" />
            <mxPoint x="290" y="360" as="targetPoint" />
            <Array as="points">
              <mxPoint x="170" y="390" />
            </Array>
          </mxGeometry>
        </mxCell>
        <mxCell id="7baba1c4bc27f4b0-11" value="&lt;font style=&quot;font-size: 10px&quot;&gt;&lt;b&gt;Задает, кто начинает игру&lt;/b&gt;&lt;/font&gt;" style="html=1;verticalAlign=bottom;endArrow=block;labelBackgroundColor=none;fontFamily=Verdana;fontSize=12;edgeStyle=elbowEdgeStyle;elbow=vertical;" parent="1" target="7baba1c4bc27f4b0-2" edge="1">
          <mxGeometry x="-0.0244" relative="1" as="geometry">
            <mxPoint x="85" y="230" as="sourcePoint" />
            <mxPoint x="285" y="230" as="targetPoint" />
            <Array as="points">
              <mxPoint x="190" y="230" />
              <mxPoint x="190" y="220" />
            </Array>
            <mxPoint as="offset" />
          </mxGeometry>
        </mxCell>
        <mxCell id="7baba1c4bc27f4b0-14" value="&lt;font style=&quot;font-size: 10px&quot;&gt;&lt;b&gt;Создает поле x*y&lt;/b&gt;&lt;/font&gt;" style="html=1;verticalAlign=bottom;endArrow=block;labelBackgroundColor=none;fontFamily=Verdana;fontSize=12;edgeStyle=elbowEdgeStyle;elbow=vertical;" parent="1" source="7baba1c4bc27f4b0-10" target="7baba1c4bc27f4b0-13" edge="1">
          <mxGeometry x="-0.0001" y="-19" relative="1" as="geometry">
            <mxPoint x="370" y="200" as="sourcePoint" />
            <mxPoint x="475" y="321" as="targetPoint" />
            <Array as="points">
              <mxPoint x="400" y="321" />
              <mxPoint x="430" y="310" />
            </Array>
            <mxPoint as="offset" />
          </mxGeometry>
        </mxCell>
        <mxCell id="ZVLFDn94XBPGQm66SeeX-1" value="&lt;font style=&quot;font-size: 10px&quot;&gt;Запрашивает размеры поля&lt;/font&gt;" style="html=1;verticalAlign=bottom;endArrow=open;dashed=1;endSize=8;labelBackgroundColor=none;fontFamily=Verdana;fontSize=12;edgeStyle=elbowEdgeStyle;elbow=vertical;" parent="1" source="7baba1c4bc27f4b0-2" edge="1">
          <mxGeometry x="0.0005" y="20" relative="1" as="geometry">
            <mxPoint x="84" y="261" as="targetPoint" />
            <Array as="points">
              <mxPoint x="100" y="261" />
              <mxPoint x="140" y="210" />
              <mxPoint x="100" y="210" />
              <mxPoint x="180" y="210" />
              <mxPoint x="185" y="210" />
              <mxPoint x="225" y="210" />
              <mxPoint x="255" y="210" />
            </Array>
            <mxPoint x="285" y="260" as="sourcePoint" />
            <mxPoint as="offset" />
          </mxGeometry>
        </mxCell>
        <mxCell id="ZVLFDn94XBPGQm66SeeX-2" value="&lt;font style=&quot;font-size: 10px&quot;&gt;&lt;b&gt;Вводят размер поля&amp;nbsp;&lt;/b&gt;&lt;/font&gt;" style="html=1;verticalAlign=bottom;endArrow=block;labelBackgroundColor=none;fontFamily=Verdana;fontSize=12;edgeStyle=elbowEdgeStyle;elbow=vertical;exitX=0.996;exitY=0.295;exitDx=0;exitDy=0;exitPerimeter=0;" parent="1" source="7baba1c4bc27f4b0-9" target="7baba1c4bc27f4b0-2" edge="1">
          <mxGeometry x="-0.0244" relative="1" as="geometry">
            <mxPoint x="90" y="310" as="sourcePoint" />
            <mxPoint x="285" y="309.96000000000004" as="targetPoint" />
            <mxPoint as="offset" />
          </mxGeometry>
        </mxCell>
        <mxCell id="ZVLFDn94XBPGQm66SeeX-3" value="&lt;font style=&quot;font-size: 9px&quot;&gt;Запрашивает, кто первый ходит(Х,О)&lt;/font&gt;" style="html=1;verticalAlign=bottom;endArrow=open;dashed=1;endSize=8;labelBackgroundColor=none;fontFamily=Verdana;fontSize=12;edgeStyle=elbowEdgeStyle;elbow=vertical;entryX=1.024;entryY=0;entryDx=0;entryDy=0;entryPerimeter=0;" parent="1" source="7baba1c4bc27f4b0-2" target="7baba1c4bc27f4b0-9" edge="1">
          <mxGeometry x="0.0005" y="20" relative="1" as="geometry">
            <mxPoint x="89.99999999999999" y="180.08000000000004" as="targetPoint" />
            <Array as="points">
              <mxPoint x="194.61" y="180" />
              <mxPoint x="144.61" y="130" />
              <mxPoint x="104.61" y="130" />
              <mxPoint x="184.61" y="130" />
              <mxPoint x="189.61" y="130" />
              <mxPoint x="229.61" y="130" />
              <mxPoint x="259.61" y="130" />
            </Array>
            <mxPoint x="289.61" y="180" as="sourcePoint" />
            <mxPoint as="offset" />
          </mxGeometry>
        </mxCell>
        <mxCell id="ZVLFDn94XBPGQm66SeeX-5" value="&lt;font style=&quot;font-size: 10px&quot;&gt;Запрашивает длину цепочки&lt;br&gt;&amp;nbsp;для выигрыша&amp;nbsp;&lt;/font&gt;" style="html=1;verticalAlign=bottom;endArrow=open;dashed=1;endSize=8;labelBackgroundColor=none;fontFamily=Verdana;fontSize=12;edgeStyle=elbowEdgeStyle;elbow=vertical;" parent="1" target="7baba1c4bc27f4b0-9" edge="1">
          <mxGeometry x="0.0276" y="35" relative="1" as="geometry">
            <mxPoint x="90" y="335" as="targetPoint" />
            <Array as="points">
              <mxPoint x="355" y="334.71" />
              <mxPoint x="345" y="334.71" />
              <mxPoint x="385" y="334.71" />
              <mxPoint x="415" y="334.71" />
            </Array>
            <mxPoint x="310" y="335" as="sourcePoint" />
            <mxPoint as="offset" />
          </mxGeometry>
        </mxCell>
        <mxCell id="ZVLFDn94XBPGQm66SeeX-6" value="&lt;font style=&quot;font-size: 10px&quot;&gt;&lt;b&gt;Вводят размер &lt;br&gt;выигрышной цепочки&lt;/b&gt;&lt;/font&gt;" style="html=1;verticalAlign=bottom;endArrow=block;labelBackgroundColor=none;fontFamily=Verdana;fontSize=12;edgeStyle=elbowEdgeStyle;elbow=vertical;exitX=1.039;exitY=0.501;exitDx=0;exitDy=0;exitPerimeter=0;" parent="1" source="7baba1c4bc27f4b0-9" target="7baba1c4bc27f4b0-2" edge="1">
          <mxGeometry x="-0.0244" relative="1" as="geometry">
            <mxPoint x="80" y="401" as="sourcePoint" />
            <mxPoint x="280" y="400" as="targetPoint" />
            <mxPoint as="offset" />
          </mxGeometry>
        </mxCell>
        <mxCell id="tXwwSBrLttJE0uFEvsUb-1" value="&lt;font style=&quot;font-size: 10px&quot;&gt;Запрашивает координаты x,y&amp;nbsp;&lt;br&gt;&lt;/font&gt;" style="html=1;verticalAlign=bottom;endArrow=open;dashed=1;endSize=8;labelBackgroundColor=none;fontFamily=Verdana;fontSize=12;edgeStyle=elbowEdgeStyle;elbow=vertical;" edge="1" parent="1" target="7baba1c4bc27f4b0-8">
          <mxGeometry x="-0.0008" y="20" relative="1" as="geometry">
            <mxPoint x="95.26999999999998" y="344.88" as="targetPoint" />
            <Array as="points">
              <mxPoint x="210" y="440" />
              <mxPoint x="355" y="344.71" />
              <mxPoint x="395" y="344.71" />
              <mxPoint x="425" y="344.71" />
            </Array>
            <mxPoint x="320" y="440" as="sourcePoint" />
            <mxPoint as="offset" />
          </mxGeometry>
        </mxCell>
        <mxCell id="tXwwSBrLttJE0uFEvsUb-2" value="&lt;span style=&quot;font-size: 10px&quot;&gt;&lt;b&gt;Вводят значения x,y&lt;/b&gt;&lt;/span&gt;" style="html=1;verticalAlign=bottom;endArrow=block;labelBackgroundColor=none;fontFamily=Verdana;fontSize=12;edgeStyle=elbowEdgeStyle;elbow=vertical;exitX=1.039;exitY=0.501;exitDx=0;exitDy=0;exitPerimeter=0;" edge="1" parent="1">
          <mxGeometry x="-0.0244" relative="1" as="geometry">
            <mxPoint x="79.99999999999999" y="510.12999999999994" as="sourcePoint" />
            <mxPoint x="320" y="510" as="targetPoint" />
            <mxPoint as="offset" />
          </mxGeometry>
        </mxCell>
        <mxCell id="tXwwSBrLttJE0uFEvsUb-3" value="&lt;span style=&quot;font-size: 10px&quot;&gt;&lt;b&gt;Проверяет, пуста ли ячейка &lt;br&gt;с координатами x,y&lt;/b&gt;&lt;/span&gt;" style="html=1;verticalAlign=bottom;endArrow=block;labelBackgroundColor=none;fontFamily=Verdana;fontSize=12;edgeStyle=elbowEdgeStyle;elbow=vertical;" edge="1" parent="1" source="7baba1c4bc27f4b0-10" target="7baba1c4bc27f4b0-4">
          <mxGeometry x="0.0298" y="-40" relative="1" as="geometry">
            <mxPoint x="335" y="450" as="sourcePoint" />
            <mxPoint x="480" y="520" as="targetPoint" />
            <Array as="points">
              <mxPoint x="390" y="520" />
              <mxPoint x="440" y="320" />
            </Array>
            <mxPoint as="offset" />
          </mxGeometry>
        </mxCell>
        <mxCell id="tXwwSBrLttJE0uFEvsUb-4" value="&lt;font style=&quot;font-size: 10px&quot;&gt;Сообщает, кто ходит следующим&lt;br&gt;&lt;/font&gt;" style="html=1;verticalAlign=bottom;endArrow=open;dashed=1;endSize=8;labelBackgroundColor=none;fontFamily=Verdana;fontSize=12;edgeStyle=elbowEdgeStyle;elbow=vertical;" edge="1" parent="1">
          <mxGeometry x="-0.0841" y="20" relative="1" as="geometry">
            <mxPoint x="80.00034482758616" y="540" as="targetPoint" />
            <Array as="points">
              <mxPoint x="210.19" y="540" />
              <mxPoint x="355.19" y="444.71" />
              <mxPoint x="395.19" y="444.71" />
              <mxPoint x="425.19" y="444.71" />
            </Array>
            <mxPoint x="320.19" y="540" as="sourcePoint" />
            <mxPoint as="offset" />
          </mxGeometry>
        </mxCell>
        <mxCell id="tXwwSBrLttJE0uFEvsUb-6" value="" style="html=1;points=[];perimeter=orthogonalPerimeter;rounded=0;shadow=0;comic=0;labelBackgroundColor=none;strokeWidth=1;fontFamily=Verdana;fontSize=12;align=center;" vertex="1" parent="1">
          <mxGeometry x="505" y="570" width="10" height="70" as="geometry" />
        </mxCell>
        <mxCell id="tXwwSBrLttJE0uFEvsUb-12" value="&lt;span style=&quot;font-size: 10px&quot;&gt;&lt;b&gt;Проверяет, есть ли &lt;br&gt;выигрышные комбинации&amp;nbsp;&lt;/b&gt;&lt;/span&gt;" style="html=1;verticalAlign=bottom;endArrow=block;labelBackgroundColor=none;fontFamily=Verdana;fontSize=12;edgeStyle=elbowEdgeStyle;elbow=vertical;" edge="1" parent="1" target="tXwwSBrLttJE0uFEvsUb-6">
          <mxGeometry x="-0.0497" y="-35" relative="1" as="geometry">
            <mxPoint x="325" y="569.0000000000001" as="sourcePoint" />
            <mxPoint x="500" y="569" as="targetPoint" />
            <Array as="points">
              <mxPoint x="400" y="570" />
              <mxPoint x="430" y="559" />
            </Array>
            <mxPoint as="offset" />
          </mxGeometry>
        </mxCell>
        <mxCell id="tXwwSBrLttJE0uFEvsUb-14" value="&lt;font style=&quot;font-size: 10px&quot;&gt;Сообщает, кто одержал победу&lt;br&gt;&lt;/font&gt;" style="html=1;verticalAlign=bottom;endArrow=open;dashed=1;endSize=8;labelBackgroundColor=none;fontFamily=Verdana;fontSize=12;edgeStyle=elbowEdgeStyle;elbow=vertical;" edge="1" parent="1">
          <mxGeometry x="-0.0841" y="20" relative="1" as="geometry">
            <mxPoint x="80.0003448275861" y="610" as="targetPoint" />
            <Array as="points">
              <mxPoint x="210.19" y="610" />
              <mxPoint x="355.19" y="514.71" />
              <mxPoint x="395.19" y="514.71" />
              <mxPoint x="425.19" y="514.71" />
            </Array>
            <mxPoint x="320.19000000000005" y="610" as="sourcePoint" />
            <mxPoint as="offset" />
          </mxGeometry>
        </mxCell>
      </root>
    </mxGraphModel>
  </diagram>
</mxfile>
